<mxfile host="app.diagrams.net" modified="2023-03-27T20:49:32.053Z" agent="Mozilla/5.0 (Windows NT 10.0; Win64; x64) AppleWebKit/537.36 (KHTML, like Gecko) Chrome/110.0.0.0 Safari/537.36 OPR/96.0.0.0" etag="Q2k1hdWDC__EvJ_-OVb2" version="21.1.1" type="github">
  <diagram name="Page-1" id="c4acf3e9-155e-7222-9cf6-157b1a14988f">
    <mxGraphModel dx="2143" dy="1178" grid="1" gridSize="10" guides="1" tooltips="1" connect="1" arrows="1" fold="1" page="1" pageScale="1" pageWidth="850" pageHeight="1100" background="none" math="0" shadow="0">
      <root>
        <mxCell id="0" />
        <mxCell id="1" parent="0" />
        <mxCell id="P7fMPqctJ7tEzOnnkOWb-28" value="&lt;font style=&quot;font-size: 16px;&quot;&gt;System ERP&lt;/font&gt;" style="shape=umlFrame;whiteSpace=wrap;html=1;rounded=0;shadow=0;comic=0;labelBackgroundColor=none;strokeWidth=1;fontFamily=Verdana;fontSize=10;align=center;width=230;height=30;" vertex="1" parent="1">
          <mxGeometry x="120" y="90" width="600" height="860" as="geometry" />
        </mxCell>
        <mxCell id="P7fMPqctJ7tEzOnnkOWb-311" style="edgeStyle=orthogonalEdgeStyle;rounded=0;orthogonalLoop=1;jettySize=auto;html=1;exitX=1;exitY=0.5;exitDx=0;exitDy=0;entryX=0;entryY=0.5;entryDx=0;entryDy=0;" edge="1" parent="1" source="P7fMPqctJ7tEzOnnkOWb-1" target="P7fMPqctJ7tEzOnnkOWb-3">
          <mxGeometry relative="1" as="geometry">
            <Array as="points">
              <mxPoint x="140" y="550" />
              <mxPoint x="140" y="180" />
            </Array>
          </mxGeometry>
        </mxCell>
        <mxCell id="P7fMPqctJ7tEzOnnkOWb-312" style="edgeStyle=orthogonalEdgeStyle;rounded=0;orthogonalLoop=1;jettySize=auto;html=1;exitX=1;exitY=0.5;exitDx=0;exitDy=0;entryX=0;entryY=0.5;entryDx=0;entryDy=0;" edge="1" parent="1" source="P7fMPqctJ7tEzOnnkOWb-1" target="P7fMPqctJ7tEzOnnkOWb-4">
          <mxGeometry relative="1" as="geometry">
            <Array as="points">
              <mxPoint x="140" y="550" />
              <mxPoint x="140" y="230" />
            </Array>
          </mxGeometry>
        </mxCell>
        <mxCell id="P7fMPqctJ7tEzOnnkOWb-313" style="edgeStyle=orthogonalEdgeStyle;rounded=0;orthogonalLoop=1;jettySize=auto;html=1;exitX=1;exitY=0.5;exitDx=0;exitDy=0;entryX=0;entryY=0.5;entryDx=0;entryDy=0;" edge="1" parent="1" source="P7fMPqctJ7tEzOnnkOWb-1" target="P7fMPqctJ7tEzOnnkOWb-221">
          <mxGeometry relative="1" as="geometry">
            <Array as="points">
              <mxPoint x="140" y="550" />
              <mxPoint x="140" y="280" />
            </Array>
          </mxGeometry>
        </mxCell>
        <mxCell id="P7fMPqctJ7tEzOnnkOWb-314" style="edgeStyle=orthogonalEdgeStyle;rounded=0;orthogonalLoop=1;jettySize=auto;html=1;exitX=1;exitY=0.5;exitDx=0;exitDy=0;entryX=0;entryY=0.5;entryDx=0;entryDy=0;" edge="1" parent="1" source="P7fMPqctJ7tEzOnnkOWb-1" target="P7fMPqctJ7tEzOnnkOWb-5">
          <mxGeometry relative="1" as="geometry">
            <Array as="points">
              <mxPoint x="140" y="550" />
              <mxPoint x="140" y="330" />
            </Array>
          </mxGeometry>
        </mxCell>
        <mxCell id="P7fMPqctJ7tEzOnnkOWb-315" style="edgeStyle=orthogonalEdgeStyle;rounded=0;orthogonalLoop=1;jettySize=auto;html=1;exitX=1;exitY=0.5;exitDx=0;exitDy=0;entryX=0;entryY=0.5;entryDx=0;entryDy=0;" edge="1" parent="1" source="P7fMPqctJ7tEzOnnkOWb-1" target="P7fMPqctJ7tEzOnnkOWb-29">
          <mxGeometry relative="1" as="geometry">
            <Array as="points">
              <mxPoint x="140" y="550" />
              <mxPoint x="140" y="380" />
            </Array>
          </mxGeometry>
        </mxCell>
        <mxCell id="P7fMPqctJ7tEzOnnkOWb-316" style="edgeStyle=orthogonalEdgeStyle;rounded=0;orthogonalLoop=1;jettySize=auto;html=1;exitX=1;exitY=0.5;exitDx=0;exitDy=0;entryX=0;entryY=0.5;entryDx=0;entryDy=0;" edge="1" parent="1" source="P7fMPqctJ7tEzOnnkOWb-1" target="P7fMPqctJ7tEzOnnkOWb-6">
          <mxGeometry relative="1" as="geometry">
            <Array as="points">
              <mxPoint x="220" y="550" />
              <mxPoint x="220" y="470" />
            </Array>
          </mxGeometry>
        </mxCell>
        <mxCell id="P7fMPqctJ7tEzOnnkOWb-317" style="edgeStyle=orthogonalEdgeStyle;rounded=0;orthogonalLoop=1;jettySize=auto;html=1;exitX=1;exitY=0.5;exitDx=0;exitDy=0;entryX=0;entryY=0.5;entryDx=0;entryDy=0;" edge="1" parent="1" source="P7fMPqctJ7tEzOnnkOWb-1" target="P7fMPqctJ7tEzOnnkOWb-20">
          <mxGeometry relative="1" as="geometry" />
        </mxCell>
        <mxCell id="P7fMPqctJ7tEzOnnkOWb-318" style="edgeStyle=orthogonalEdgeStyle;rounded=0;orthogonalLoop=1;jettySize=auto;html=1;exitX=1;exitY=0.5;exitDx=0;exitDy=0;entryX=0;entryY=0.5;entryDx=0;entryDy=0;" edge="1" parent="1" source="P7fMPqctJ7tEzOnnkOWb-1" target="P7fMPqctJ7tEzOnnkOWb-21">
          <mxGeometry relative="1" as="geometry" />
        </mxCell>
        <mxCell id="P7fMPqctJ7tEzOnnkOWb-319" style="edgeStyle=orthogonalEdgeStyle;rounded=0;orthogonalLoop=1;jettySize=auto;html=1;exitX=1;exitY=0.5;exitDx=0;exitDy=0;entryX=0;entryY=0.5;entryDx=0;entryDy=0;" edge="1" parent="1" source="P7fMPqctJ7tEzOnnkOWb-1" target="P7fMPqctJ7tEzOnnkOWb-303">
          <mxGeometry relative="1" as="geometry" />
        </mxCell>
        <mxCell id="P7fMPqctJ7tEzOnnkOWb-320" style="edgeStyle=orthogonalEdgeStyle;rounded=0;orthogonalLoop=1;jettySize=auto;html=1;exitX=1;exitY=0.5;exitDx=0;exitDy=0;entryX=0;entryY=0.5;entryDx=0;entryDy=0;" edge="1" parent="1" source="P7fMPqctJ7tEzOnnkOWb-1" target="P7fMPqctJ7tEzOnnkOWb-302">
          <mxGeometry relative="1" as="geometry" />
        </mxCell>
        <mxCell id="P7fMPqctJ7tEzOnnkOWb-321" style="edgeStyle=orthogonalEdgeStyle;rounded=0;orthogonalLoop=1;jettySize=auto;html=1;exitX=1;exitY=0.5;exitDx=0;exitDy=0;entryX=0;entryY=0.5;entryDx=0;entryDy=0;" edge="1" parent="1" source="P7fMPqctJ7tEzOnnkOWb-1" target="P7fMPqctJ7tEzOnnkOWb-23">
          <mxGeometry relative="1" as="geometry" />
        </mxCell>
        <mxCell id="P7fMPqctJ7tEzOnnkOWb-322" style="edgeStyle=orthogonalEdgeStyle;rounded=0;orthogonalLoop=1;jettySize=auto;html=1;exitX=1;exitY=0.5;exitDx=0;exitDy=0;entryX=0;entryY=0.5;entryDx=0;entryDy=0;" edge="1" parent="1" source="P7fMPqctJ7tEzOnnkOWb-1" target="P7fMPqctJ7tEzOnnkOWb-301">
          <mxGeometry relative="1" as="geometry" />
        </mxCell>
        <mxCell id="P7fMPqctJ7tEzOnnkOWb-323" style="edgeStyle=orthogonalEdgeStyle;rounded=0;orthogonalLoop=1;jettySize=auto;html=1;exitX=1;exitY=0.5;exitDx=0;exitDy=0;entryX=0;entryY=0.5;entryDx=0;entryDy=0;" edge="1" parent="1" source="P7fMPqctJ7tEzOnnkOWb-1" target="P7fMPqctJ7tEzOnnkOWb-14">
          <mxGeometry relative="1" as="geometry">
            <Array as="points">
              <mxPoint x="220" y="550" />
              <mxPoint x="220" y="430" />
              <mxPoint x="320" y="430" />
              <mxPoint x="320" y="420" />
            </Array>
          </mxGeometry>
        </mxCell>
        <mxCell id="P7fMPqctJ7tEzOnnkOWb-324" style="edgeStyle=orthogonalEdgeStyle;rounded=0;orthogonalLoop=1;jettySize=auto;html=1;exitX=1;exitY=0.5;exitDx=0;exitDy=0;entryX=0;entryY=0.5;entryDx=0;entryDy=0;" edge="1" parent="1" source="P7fMPqctJ7tEzOnnkOWb-1" target="P7fMPqctJ7tEzOnnkOWb-11">
          <mxGeometry relative="1" as="geometry">
            <Array as="points">
              <mxPoint x="220" y="550" />
              <mxPoint x="220" y="430" />
              <mxPoint x="320" y="430" />
              <mxPoint x="320" y="320" />
            </Array>
          </mxGeometry>
        </mxCell>
        <mxCell id="P7fMPqctJ7tEzOnnkOWb-325" style="edgeStyle=orthogonalEdgeStyle;rounded=0;orthogonalLoop=1;jettySize=auto;html=1;exitX=1;exitY=0.5;exitDx=0;exitDy=0;entryX=0;entryY=0.5;entryDx=0;entryDy=0;" edge="1" parent="1" source="P7fMPqctJ7tEzOnnkOWb-1" target="P7fMPqctJ7tEzOnnkOWb-10">
          <mxGeometry relative="1" as="geometry">
            <Array as="points">
              <mxPoint x="220" y="550" />
              <mxPoint x="220" y="430" />
              <mxPoint x="320" y="430" />
              <mxPoint x="320" y="269" />
            </Array>
          </mxGeometry>
        </mxCell>
        <mxCell id="P7fMPqctJ7tEzOnnkOWb-326" style="edgeStyle=orthogonalEdgeStyle;rounded=0;orthogonalLoop=1;jettySize=auto;html=1;exitX=1;exitY=0.5;exitDx=0;exitDy=0;entryX=0;entryY=0.5;entryDx=0;entryDy=0;" edge="1" parent="1" source="P7fMPqctJ7tEzOnnkOWb-1" target="P7fMPqctJ7tEzOnnkOWb-9">
          <mxGeometry relative="1" as="geometry">
            <Array as="points">
              <mxPoint x="220" y="550" />
              <mxPoint x="220" y="430" />
              <mxPoint x="320" y="430" />
              <mxPoint x="320" y="220" />
            </Array>
          </mxGeometry>
        </mxCell>
        <mxCell id="P7fMPqctJ7tEzOnnkOWb-344" style="edgeStyle=orthogonalEdgeStyle;rounded=0;orthogonalLoop=1;jettySize=auto;html=1;exitX=1;exitY=0.5;exitDx=0;exitDy=0;entryX=0;entryY=0.5;entryDx=0;entryDy=0;" edge="1" parent="1" source="P7fMPqctJ7tEzOnnkOWb-1" target="P7fMPqctJ7tEzOnnkOWb-13">
          <mxGeometry relative="1" as="geometry">
            <Array as="points">
              <mxPoint x="220" y="550" />
              <mxPoint x="220" y="430" />
              <mxPoint x="320" y="430" />
              <mxPoint x="320" y="370" />
            </Array>
          </mxGeometry>
        </mxCell>
        <mxCell id="P7fMPqctJ7tEzOnnkOWb-1" value="" style="image;html=1;image=img/lib/clip_art/people/Worker_Man_128x128.png" vertex="1" parent="1">
          <mxGeometry x="10" y="510" width="80" height="80" as="geometry" />
        </mxCell>
        <mxCell id="P7fMPqctJ7tEzOnnkOWb-3" value="Rejestracja" style="rounded=0;whiteSpace=wrap;html=1;" vertex="1" parent="1">
          <mxGeometry x="160" y="160" width="140" height="40" as="geometry" />
        </mxCell>
        <mxCell id="P7fMPqctJ7tEzOnnkOWb-4" value="Logowanie" style="rounded=0;whiteSpace=wrap;html=1;" vertex="1" parent="1">
          <mxGeometry x="160" y="210" width="140" height="40" as="geometry" />
        </mxCell>
        <mxCell id="P7fMPqctJ7tEzOnnkOWb-5" value="Obliczenie kredytu lub leasingu" style="rounded=0;whiteSpace=wrap;html=1;" vertex="1" parent="1">
          <mxGeometry x="160" y="310" width="140" height="40" as="geometry" />
        </mxCell>
        <mxCell id="P7fMPqctJ7tEzOnnkOWb-6" value="Płatność" style="rounded=0;whiteSpace=wrap;html=1;" vertex="1" parent="1">
          <mxGeometry x="350" y="450" width="140" height="40" as="geometry" />
        </mxCell>
        <mxCell id="P7fMPqctJ7tEzOnnkOWb-9" value="Wyszukiwanie produktów" style="rounded=0;whiteSpace=wrap;html=1;" vertex="1" parent="1">
          <mxGeometry x="350" y="200" width="140" height="40" as="geometry" />
        </mxCell>
        <mxCell id="P7fMPqctJ7tEzOnnkOWb-10" value="Podgląd produktu" style="rounded=0;whiteSpace=wrap;html=1;" vertex="1" parent="1">
          <mxGeometry x="350" y="248.5" width="140" height="40" as="geometry" />
        </mxCell>
        <mxCell id="P7fMPqctJ7tEzOnnkOWb-11" value="Obsługa koszyka" style="rounded=0;whiteSpace=wrap;html=1;" vertex="1" parent="1">
          <mxGeometry x="350" y="300" width="140" height="40" as="geometry" />
        </mxCell>
        <mxCell id="P7fMPqctJ7tEzOnnkOWb-14" value="Wybór metody dostawy" style="rounded=0;whiteSpace=wrap;html=1;" vertex="1" parent="1">
          <mxGeometry x="350" y="400" width="140" height="40" as="geometry" />
        </mxCell>
        <mxCell id="P7fMPqctJ7tEzOnnkOWb-20" value="Złożenie zamówienia" style="rounded=0;whiteSpace=wrap;html=1;" vertex="1" parent="1">
          <mxGeometry x="350" y="500" width="140" height="40" as="geometry" />
        </mxCell>
        <mxCell id="P7fMPqctJ7tEzOnnkOWb-21" value="Zarządzanie zamówieniem" style="rounded=0;whiteSpace=wrap;html=1;" vertex="1" parent="1">
          <mxGeometry x="350" y="550" width="140" height="40" as="geometry" />
        </mxCell>
        <mxCell id="P7fMPqctJ7tEzOnnkOWb-23" value="Anulowanie zamówienia" style="rounded=0;whiteSpace=wrap;html=1;" vertex="1" parent="1">
          <mxGeometry x="350" y="700" width="140" height="40" as="geometry" />
        </mxCell>
        <mxCell id="P7fMPqctJ7tEzOnnkOWb-29" value="Wystawienie opinii o produkcie" style="rounded=0;whiteSpace=wrap;html=1;" vertex="1" parent="1">
          <mxGeometry x="160" y="360" width="140" height="40" as="geometry" />
        </mxCell>
        <mxCell id="P7fMPqctJ7tEzOnnkOWb-30" value="" style="image;html=1;image=img/lib/clip_art/finance/Dollar_128x128.png" vertex="1" parent="1">
          <mxGeometry x="30" y="760" width="60" height="60" as="geometry" />
        </mxCell>
        <mxCell id="P7fMPqctJ7tEzOnnkOWb-32" value="" style="dashed=0;outlineConnect=0;html=1;align=center;labelPosition=center;verticalLabelPosition=bottom;verticalAlign=top;shape=mxgraph.webicons.facebook;fillColor=#6294E4;gradientColor=#1A2665" vertex="1" parent="1">
          <mxGeometry x="50" y="245" width="40" height="35" as="geometry" />
        </mxCell>
        <mxCell id="P7fMPqctJ7tEzOnnkOWb-33" value="" style="dashed=0;outlineConnect=0;html=1;align=center;labelPosition=center;verticalLabelPosition=bottom;verticalAlign=top;shape=mxgraph.weblogos.gmail" vertex="1" parent="1">
          <mxGeometry x="40" y="230" width="40" height="25" as="geometry" />
        </mxCell>
        <mxCell id="P7fMPqctJ7tEzOnnkOWb-34" value="" style="dashed=0;outlineConnect=0;html=1;align=center;labelPosition=center;verticalLabelPosition=bottom;verticalAlign=top;shape=mxgraph.weblogos.twitter;fillColor=#1DA1F2;strokeColor=none" vertex="1" parent="1">
          <mxGeometry x="30" y="245" width="40" height="35" as="geometry" />
        </mxCell>
        <mxCell id="P7fMPqctJ7tEzOnnkOWb-37" value="" style="shape=image;html=1;verticalAlign=top;verticalLabelPosition=bottom;labelBackgroundColor=#ffffff;imageAspect=0;aspect=fixed;image=https://cdn0.iconfinder.com/data/icons/business-and-education-1/512/154_truck__delivery__gooods__vehicle-128.png" vertex="1" parent="1">
          <mxGeometry x="759" y="280" width="68.5" height="68.5" as="geometry" />
        </mxCell>
        <mxCell id="P7fMPqctJ7tEzOnnkOWb-38" value="Bank&amp;nbsp; /&amp;nbsp;&lt;br&gt;Pośrednik płatności" style="text;html=1;align=center;verticalAlign=middle;resizable=0;points=[];autosize=1;strokeColor=none;fillColor=none;" vertex="1" parent="1">
          <mxGeometry y="820" width="130" height="40" as="geometry" />
        </mxCell>
        <mxCell id="P7fMPqctJ7tEzOnnkOWb-87" value="Dostawca" style="text;html=1;align=center;verticalAlign=middle;resizable=0;points=[];autosize=1;strokeColor=none;fillColor=none;" vertex="1" parent="1">
          <mxGeometry x="752.5" y="330" width="80" height="30" as="geometry" />
        </mxCell>
        <mxCell id="P7fMPqctJ7tEzOnnkOWb-90" value="Portal zawierający&lt;br&gt;dane klienta&lt;br&gt;" style="text;html=1;align=center;verticalAlign=middle;resizable=0;points=[];autosize=1;strokeColor=none;fillColor=none;" vertex="1" parent="1">
          <mxGeometry y="283.5" width="120" height="40" as="geometry" />
        </mxCell>
        <mxCell id="P7fMPqctJ7tEzOnnkOWb-91" value="Klient" style="text;html=1;align=center;verticalAlign=middle;resizable=0;points=[];autosize=1;strokeColor=none;fillColor=none;" vertex="1" parent="1">
          <mxGeometry x="25" y="590" width="50" height="30" as="geometry" />
        </mxCell>
        <mxCell id="P7fMPqctJ7tEzOnnkOWb-330" style="edgeStyle=orthogonalEdgeStyle;rounded=0;orthogonalLoop=1;jettySize=auto;html=1;exitX=0;exitY=0.5;exitDx=0;exitDy=0;entryX=1;entryY=0.5;entryDx=0;entryDy=0;" edge="1" parent="1" source="P7fMPqctJ7tEzOnnkOWb-186" target="P7fMPqctJ7tEzOnnkOWb-300">
          <mxGeometry relative="1" as="geometry">
            <Array as="points">
              <mxPoint x="700" y="550" />
              <mxPoint x="700" y="304" />
            </Array>
          </mxGeometry>
        </mxCell>
        <mxCell id="P7fMPqctJ7tEzOnnkOWb-331" style="edgeStyle=orthogonalEdgeStyle;rounded=0;orthogonalLoop=1;jettySize=auto;html=1;exitX=0;exitY=0.5;exitDx=0;exitDy=0;entryX=1;entryY=0.5;entryDx=0;entryDy=0;" edge="1" parent="1" source="P7fMPqctJ7tEzOnnkOWb-186" target="P7fMPqctJ7tEzOnnkOWb-207">
          <mxGeometry relative="1" as="geometry">
            <Array as="points">
              <mxPoint x="700" y="550" />
              <mxPoint x="700" y="180" />
            </Array>
          </mxGeometry>
        </mxCell>
        <mxCell id="P7fMPqctJ7tEzOnnkOWb-332" style="edgeStyle=orthogonalEdgeStyle;rounded=0;orthogonalLoop=1;jettySize=auto;html=1;exitX=0;exitY=0.5;exitDx=0;exitDy=0;entryX=1;entryY=0.5;entryDx=0;entryDy=0;" edge="1" parent="1" source="P7fMPqctJ7tEzOnnkOWb-186" target="P7fMPqctJ7tEzOnnkOWb-9">
          <mxGeometry relative="1" as="geometry">
            <Array as="points">
              <mxPoint x="620" y="550" />
              <mxPoint x="620" y="370" />
              <mxPoint x="520" y="370" />
              <mxPoint x="520" y="220" />
            </Array>
          </mxGeometry>
        </mxCell>
        <mxCell id="P7fMPqctJ7tEzOnnkOWb-333" style="edgeStyle=orthogonalEdgeStyle;rounded=0;orthogonalLoop=1;jettySize=auto;html=1;exitX=0;exitY=0.5;exitDx=0;exitDy=0;entryX=1;entryY=0.5;entryDx=0;entryDy=0;" edge="1" parent="1" source="P7fMPqctJ7tEzOnnkOWb-186" target="P7fMPqctJ7tEzOnnkOWb-10">
          <mxGeometry relative="1" as="geometry">
            <Array as="points">
              <mxPoint x="620" y="550" />
              <mxPoint x="620" y="370" />
              <mxPoint x="520" y="370" />
              <mxPoint x="520" y="269" />
            </Array>
          </mxGeometry>
        </mxCell>
        <mxCell id="P7fMPqctJ7tEzOnnkOWb-334" style="edgeStyle=orthogonalEdgeStyle;rounded=0;orthogonalLoop=1;jettySize=auto;html=1;exitX=0;exitY=0.5;exitDx=0;exitDy=0;entryX=1;entryY=0.5;entryDx=0;entryDy=0;" edge="1" parent="1" source="P7fMPqctJ7tEzOnnkOWb-186" target="P7fMPqctJ7tEzOnnkOWb-11">
          <mxGeometry relative="1" as="geometry">
            <Array as="points">
              <mxPoint x="620" y="550" />
              <mxPoint x="620" y="370" />
              <mxPoint x="520" y="370" />
              <mxPoint x="520" y="320" />
            </Array>
          </mxGeometry>
        </mxCell>
        <mxCell id="P7fMPqctJ7tEzOnnkOWb-335" style="edgeStyle=orthogonalEdgeStyle;rounded=0;orthogonalLoop=1;jettySize=auto;html=1;exitX=0;exitY=0.5;exitDx=0;exitDy=0;entryX=1;entryY=0.5;entryDx=0;entryDy=0;" edge="1" parent="1" source="P7fMPqctJ7tEzOnnkOWb-186" target="P7fMPqctJ7tEzOnnkOWb-13">
          <mxGeometry relative="1" as="geometry">
            <Array as="points">
              <mxPoint x="620" y="550" />
              <mxPoint x="620" y="370" />
            </Array>
          </mxGeometry>
        </mxCell>
        <mxCell id="P7fMPqctJ7tEzOnnkOWb-336" style="edgeStyle=orthogonalEdgeStyle;rounded=0;orthogonalLoop=1;jettySize=auto;html=1;exitX=0;exitY=0.5;exitDx=0;exitDy=0;entryX=1;entryY=0.5;entryDx=0;entryDy=0;" edge="1" parent="1" source="P7fMPqctJ7tEzOnnkOWb-186" target="P7fMPqctJ7tEzOnnkOWb-14">
          <mxGeometry relative="1" as="geometry">
            <Array as="points">
              <mxPoint x="620" y="550" />
              <mxPoint x="620" y="420" />
            </Array>
          </mxGeometry>
        </mxCell>
        <mxCell id="P7fMPqctJ7tEzOnnkOWb-337" style="edgeStyle=orthogonalEdgeStyle;rounded=0;orthogonalLoop=1;jettySize=auto;html=1;exitX=0;exitY=0.5;exitDx=0;exitDy=0;entryX=1;entryY=0.5;entryDx=0;entryDy=0;" edge="1" parent="1" source="P7fMPqctJ7tEzOnnkOWb-186" target="P7fMPqctJ7tEzOnnkOWb-6">
          <mxGeometry relative="1" as="geometry">
            <Array as="points">
              <mxPoint x="620" y="550" />
              <mxPoint x="620" y="470" />
            </Array>
          </mxGeometry>
        </mxCell>
        <mxCell id="P7fMPqctJ7tEzOnnkOWb-338" style="edgeStyle=orthogonalEdgeStyle;rounded=0;orthogonalLoop=1;jettySize=auto;html=1;exitX=0;exitY=0.5;exitDx=0;exitDy=0;entryX=1;entryY=0.5;entryDx=0;entryDy=0;" edge="1" parent="1" source="P7fMPqctJ7tEzOnnkOWb-186" target="P7fMPqctJ7tEzOnnkOWb-20">
          <mxGeometry relative="1" as="geometry">
            <Array as="points">
              <mxPoint x="620" y="550" />
              <mxPoint x="620" y="520" />
            </Array>
          </mxGeometry>
        </mxCell>
        <mxCell id="P7fMPqctJ7tEzOnnkOWb-340" style="edgeStyle=orthogonalEdgeStyle;rounded=0;orthogonalLoop=1;jettySize=auto;html=1;exitX=0;exitY=0.5;exitDx=0;exitDy=0;entryX=1;entryY=0.5;entryDx=0;entryDy=0;" edge="1" parent="1" source="P7fMPqctJ7tEzOnnkOWb-186" target="P7fMPqctJ7tEzOnnkOWb-21">
          <mxGeometry relative="1" as="geometry">
            <Array as="points">
              <mxPoint x="620" y="550" />
              <mxPoint x="620" y="570" />
            </Array>
          </mxGeometry>
        </mxCell>
        <mxCell id="P7fMPqctJ7tEzOnnkOWb-341" style="edgeStyle=orthogonalEdgeStyle;rounded=0;orthogonalLoop=1;jettySize=auto;html=1;exitX=0;exitY=0.5;exitDx=0;exitDy=0;entryX=1;entryY=0.5;entryDx=0;entryDy=0;" edge="1" parent="1" source="P7fMPqctJ7tEzOnnkOWb-186" target="P7fMPqctJ7tEzOnnkOWb-303">
          <mxGeometry relative="1" as="geometry">
            <Array as="points">
              <mxPoint x="620" y="550" />
              <mxPoint x="620" y="620" />
            </Array>
          </mxGeometry>
        </mxCell>
        <mxCell id="P7fMPqctJ7tEzOnnkOWb-342" style="edgeStyle=orthogonalEdgeStyle;rounded=0;orthogonalLoop=1;jettySize=auto;html=1;exitX=0;exitY=0.5;exitDx=0;exitDy=0;entryX=1;entryY=0.5;entryDx=0;entryDy=0;" edge="1" parent="1" source="P7fMPqctJ7tEzOnnkOWb-186" target="P7fMPqctJ7tEzOnnkOWb-302">
          <mxGeometry relative="1" as="geometry">
            <Array as="points">
              <mxPoint x="620" y="550" />
              <mxPoint x="620" y="670" />
            </Array>
          </mxGeometry>
        </mxCell>
        <mxCell id="P7fMPqctJ7tEzOnnkOWb-343" style="edgeStyle=orthogonalEdgeStyle;rounded=0;orthogonalLoop=1;jettySize=auto;html=1;exitX=0;exitY=0.5;exitDx=0;exitDy=0;entryX=1;entryY=0.5;entryDx=0;entryDy=0;" edge="1" parent="1" source="P7fMPqctJ7tEzOnnkOWb-186" target="P7fMPqctJ7tEzOnnkOWb-23">
          <mxGeometry relative="1" as="geometry">
            <Array as="points">
              <mxPoint x="620" y="550" />
              <mxPoint x="620" y="720" />
            </Array>
          </mxGeometry>
        </mxCell>
        <mxCell id="P7fMPqctJ7tEzOnnkOWb-345" style="edgeStyle=orthogonalEdgeStyle;rounded=0;orthogonalLoop=1;jettySize=auto;html=1;exitX=0;exitY=0.5;exitDx=0;exitDy=0;entryX=1;entryY=0.5;entryDx=0;entryDy=0;" edge="1" parent="1" source="P7fMPqctJ7tEzOnnkOWb-186" target="P7fMPqctJ7tEzOnnkOWb-301">
          <mxGeometry relative="1" as="geometry">
            <Array as="points">
              <mxPoint x="620" y="550" />
              <mxPoint x="620" y="770" />
            </Array>
          </mxGeometry>
        </mxCell>
        <mxCell id="P7fMPqctJ7tEzOnnkOWb-186" value="" style="image;html=1;image=img/lib/clip_art/people/Telesales_Woman_128x128.png" vertex="1" parent="1">
          <mxGeometry x="752.5" y="510" width="80" height="80" as="geometry" />
        </mxCell>
        <mxCell id="P7fMPqctJ7tEzOnnkOWb-187" value="Pracownik działu&lt;br&gt;zakupów" style="text;html=1;align=center;verticalAlign=middle;resizable=0;points=[];autosize=1;strokeColor=none;fillColor=none;" vertex="1" parent="1">
          <mxGeometry x="737.5" y="590" width="110" height="40" as="geometry" />
        </mxCell>
        <mxCell id="P7fMPqctJ7tEzOnnkOWb-13" value="Wprowadzenie danych do dostawy" style="rounded=0;whiteSpace=wrap;html=1;" vertex="1" parent="1">
          <mxGeometry x="350" y="350" width="140" height="40" as="geometry" />
        </mxCell>
        <mxCell id="P7fMPqctJ7tEzOnnkOWb-207" value="Zarządzanie dostawcami" style="rounded=0;whiteSpace=wrap;html=1;" vertex="1" parent="1">
          <mxGeometry x="540" y="160" width="140" height="40" as="geometry" />
        </mxCell>
        <mxCell id="P7fMPqctJ7tEzOnnkOWb-221" value="Zarządzanie kontem" style="rounded=0;whiteSpace=wrap;html=1;" vertex="1" parent="1">
          <mxGeometry x="160" y="260" width="140" height="40" as="geometry" />
        </mxCell>
        <mxCell id="P7fMPqctJ7tEzOnnkOWb-222" value="Zarządzenie stanem magazynu" style="rounded=0;whiteSpace=wrap;html=1;" vertex="1" parent="1">
          <mxGeometry x="160" y="890" width="140" height="40" as="geometry" />
        </mxCell>
        <mxCell id="P7fMPqctJ7tEzOnnkOWb-223" value="Planowanie dostaw" style="rounded=0;whiteSpace=wrap;html=1;" vertex="1" parent="1">
          <mxGeometry x="350" y="840" width="140" height="40" as="geometry" />
        </mxCell>
        <mxCell id="P7fMPqctJ7tEzOnnkOWb-224" value="Przesunięcia magazynowe" style="rounded=0;whiteSpace=wrap;html=1;" vertex="1" parent="1">
          <mxGeometry x="160" y="840" width="140" height="40" as="geometry" />
        </mxCell>
        <mxCell id="P7fMPqctJ7tEzOnnkOWb-225" value="Prognozowanie zapotrzebowania" style="rounded=0;whiteSpace=wrap;html=1;" vertex="1" parent="1">
          <mxGeometry x="540" y="840" width="140" height="40" as="geometry" />
        </mxCell>
        <mxCell id="P7fMPqctJ7tEzOnnkOWb-226" value="Monitorowanie parametrów" style="rounded=0;whiteSpace=wrap;html=1;" vertex="1" parent="1">
          <mxGeometry x="540" y="890" width="140" height="40" as="geometry" />
        </mxCell>
        <mxCell id="P7fMPqctJ7tEzOnnkOWb-306" style="edgeStyle=orthogonalEdgeStyle;rounded=0;orthogonalLoop=1;jettySize=auto;html=1;exitX=0.5;exitY=0;exitDx=0;exitDy=0;entryX=0.5;entryY=1;entryDx=0;entryDy=0;" edge="1" parent="1" source="P7fMPqctJ7tEzOnnkOWb-227" target="P7fMPqctJ7tEzOnnkOWb-223">
          <mxGeometry relative="1" as="geometry" />
        </mxCell>
        <mxCell id="P7fMPqctJ7tEzOnnkOWb-307" style="edgeStyle=orthogonalEdgeStyle;rounded=0;orthogonalLoop=1;jettySize=auto;html=1;exitX=0.5;exitY=0;exitDx=0;exitDy=0;entryX=1;entryY=0.5;entryDx=0;entryDy=0;" edge="1" parent="1" source="P7fMPqctJ7tEzOnnkOWb-227" target="P7fMPqctJ7tEzOnnkOWb-222">
          <mxGeometry relative="1" as="geometry" />
        </mxCell>
        <mxCell id="P7fMPqctJ7tEzOnnkOWb-308" style="edgeStyle=orthogonalEdgeStyle;rounded=0;orthogonalLoop=1;jettySize=auto;html=1;exitX=0.5;exitY=0;exitDx=0;exitDy=0;entryX=0;entryY=0.5;entryDx=0;entryDy=0;" edge="1" parent="1" source="P7fMPqctJ7tEzOnnkOWb-227" target="P7fMPqctJ7tEzOnnkOWb-226">
          <mxGeometry relative="1" as="geometry" />
        </mxCell>
        <mxCell id="P7fMPqctJ7tEzOnnkOWb-309" style="edgeStyle=orthogonalEdgeStyle;rounded=0;orthogonalLoop=1;jettySize=auto;html=1;exitX=0.5;exitY=0;exitDx=0;exitDy=0;entryX=1;entryY=0.5;entryDx=0;entryDy=0;" edge="1" parent="1" source="P7fMPqctJ7tEzOnnkOWb-227" target="P7fMPqctJ7tEzOnnkOWb-224">
          <mxGeometry relative="1" as="geometry">
            <Array as="points">
              <mxPoint x="420" y="910" />
              <mxPoint x="340" y="910" />
              <mxPoint x="340" y="860" />
            </Array>
          </mxGeometry>
        </mxCell>
        <mxCell id="P7fMPqctJ7tEzOnnkOWb-310" style="edgeStyle=orthogonalEdgeStyle;rounded=0;orthogonalLoop=1;jettySize=auto;html=1;exitX=0.5;exitY=0;exitDx=0;exitDy=0;entryX=0;entryY=0.5;entryDx=0;entryDy=0;" edge="1" parent="1" source="P7fMPqctJ7tEzOnnkOWb-227" target="P7fMPqctJ7tEzOnnkOWb-225">
          <mxGeometry relative="1" as="geometry">
            <Array as="points">
              <mxPoint x="420" y="910" />
              <mxPoint x="510" y="910" />
              <mxPoint x="510" y="860" />
            </Array>
          </mxGeometry>
        </mxCell>
        <mxCell id="P7fMPqctJ7tEzOnnkOWb-227" value="" style="image;html=1;image=img/lib/clip_art/people/Construction_Worker_Man_Black_128x128.png" vertex="1" parent="1">
          <mxGeometry x="380" y="980" width="80" height="80" as="geometry" />
        </mxCell>
        <mxCell id="P7fMPqctJ7tEzOnnkOWb-228" value="Pracownik&lt;br&gt;magazynu" style="text;html=1;align=center;verticalAlign=middle;resizable=0;points=[];autosize=1;strokeColor=none;fillColor=none;" vertex="1" parent="1">
          <mxGeometry x="380" y="1060" width="80" height="40" as="geometry" />
        </mxCell>
        <mxCell id="P7fMPqctJ7tEzOnnkOWb-300" value="Generowanie raportów ułatwiających podjęcie decyzji o zakupie produktów (opinie, sprzedaż, trendy)&amp;nbsp;" style="rounded=0;whiteSpace=wrap;html=1;" vertex="1" parent="1">
          <mxGeometry x="540" y="258.5" width="140" height="90" as="geometry" />
        </mxCell>
        <mxCell id="P7fMPqctJ7tEzOnnkOWb-301" value="Reklamacja i zwrot produktu" style="rounded=0;whiteSpace=wrap;html=1;" vertex="1" parent="1">
          <mxGeometry x="350" y="750" width="140" height="40" as="geometry" />
        </mxCell>
        <mxCell id="P7fMPqctJ7tEzOnnkOWb-302" value="Historia zakupów" style="rounded=0;whiteSpace=wrap;html=1;" vertex="1" parent="1">
          <mxGeometry x="350" y="650" width="140" height="40" as="geometry" />
        </mxCell>
        <mxCell id="P7fMPqctJ7tEzOnnkOWb-303" value="Anulowanie zamówienia" style="rounded=0;whiteSpace=wrap;html=1;" vertex="1" parent="1">
          <mxGeometry x="350" y="600" width="140" height="40" as="geometry" />
        </mxCell>
        <mxCell id="P7fMPqctJ7tEzOnnkOWb-304" style="edgeStyle=orthogonalEdgeStyle;rounded=0;orthogonalLoop=1;jettySize=auto;html=1;exitX=0.5;exitY=1;exitDx=0;exitDy=0;" edge="1" parent="1" source="P7fMPqctJ7tEzOnnkOWb-225" target="P7fMPqctJ7tEzOnnkOWb-225">
          <mxGeometry relative="1" as="geometry" />
        </mxCell>
        <mxCell id="P7fMPqctJ7tEzOnnkOWb-329" value="" style="edgeStyle=orthogonalEdgeStyle;rounded=0;orthogonalLoop=1;jettySize=auto;html=1;exitX=0;exitY=0.5;exitDx=0;exitDy=0;entryX=1;entryY=0.5;entryDx=0;entryDy=0;" edge="1" parent="1" source="P7fMPqctJ7tEzOnnkOWb-186" target="P7fMPqctJ7tEzOnnkOWb-220">
          <mxGeometry relative="1" as="geometry">
            <mxPoint x="753" y="550" as="sourcePoint" />
            <mxPoint x="490" y="180" as="targetPoint" />
            <Array as="points">
              <mxPoint x="700" y="550" />
              <mxPoint x="700" y="230" />
            </Array>
          </mxGeometry>
        </mxCell>
        <mxCell id="P7fMPqctJ7tEzOnnkOWb-220" value="Negocjowanie cen z producentem, dostawcą" style="rounded=0;whiteSpace=wrap;html=1;" vertex="1" parent="1">
          <mxGeometry x="540" y="210" width="140" height="40" as="geometry" />
        </mxCell>
        <mxCell id="P7fMPqctJ7tEzOnnkOWb-349" value="" style="endArrow=none;dashed=1;html=1;dashPattern=1 3;strokeWidth=2;rounded=0;entryX=0;entryY=0.5;entryDx=0;entryDy=0;" edge="1" parent="1" source="P7fMPqctJ7tEzOnnkOWb-33" target="P7fMPqctJ7tEzOnnkOWb-3">
          <mxGeometry width="50" height="50" relative="1" as="geometry">
            <mxPoint x="-50" y="390" as="sourcePoint" />
            <mxPoint y="340" as="targetPoint" />
          </mxGeometry>
        </mxCell>
        <mxCell id="P7fMPqctJ7tEzOnnkOWb-350" value="" style="endArrow=none;dashed=1;html=1;dashPattern=1 3;strokeWidth=2;rounded=0;entryX=0;entryY=0.5;entryDx=0;entryDy=0;" edge="1" parent="1" target="P7fMPqctJ7tEzOnnkOWb-4">
          <mxGeometry width="50" height="50" relative="1" as="geometry">
            <mxPoint x="80" y="230" as="sourcePoint" />
            <mxPoint x="90" y="323.5" as="targetPoint" />
          </mxGeometry>
        </mxCell>
        <mxCell id="P7fMPqctJ7tEzOnnkOWb-351" value="" style="endArrow=none;dashed=1;html=1;dashPattern=1 3;strokeWidth=2;rounded=0;exitX=1;exitY=0;exitDx=0;exitDy=0;entryX=0;entryY=0.5;entryDx=0;entryDy=0;" edge="1" parent="1" source="P7fMPqctJ7tEzOnnkOWb-30" target="P7fMPqctJ7tEzOnnkOWb-6">
          <mxGeometry width="50" height="50" relative="1" as="geometry">
            <mxPoint x="-50" y="580" as="sourcePoint" />
            <mxPoint y="530" as="targetPoint" />
            <Array as="points">
              <mxPoint x="190" y="510" />
            </Array>
          </mxGeometry>
        </mxCell>
        <mxCell id="P7fMPqctJ7tEzOnnkOWb-352" value="" style="endArrow=none;dashed=1;html=1;dashPattern=1 3;strokeWidth=2;rounded=0;entryX=0;entryY=0.5;entryDx=0;entryDy=0;exitX=1;exitY=0;exitDx=0;exitDy=0;" edge="1" parent="1" source="P7fMPqctJ7tEzOnnkOWb-30" target="P7fMPqctJ7tEzOnnkOWb-5">
          <mxGeometry width="50" height="50" relative="1" as="geometry">
            <mxPoint x="-50" y="580" as="sourcePoint" />
            <mxPoint y="530" as="targetPoint" />
            <Array as="points">
              <mxPoint x="100" y="390" />
            </Array>
          </mxGeometry>
        </mxCell>
        <mxCell id="P7fMPqctJ7tEzOnnkOWb-353" value="" style="endArrow=none;dashed=1;html=1;dashPattern=1 3;strokeWidth=2;rounded=0;entryX=1;entryY=0.5;entryDx=0;entryDy=0;exitX=0;exitY=0.5;exitDx=0;exitDy=0;" edge="1" parent="1" source="P7fMPqctJ7tEzOnnkOWb-37" target="P7fMPqctJ7tEzOnnkOWb-14">
          <mxGeometry width="50" height="50" relative="1" as="geometry">
            <mxPoint x="210" y="580" as="sourcePoint" />
            <mxPoint x="260" y="530" as="targetPoint" />
            <Array as="points">
              <mxPoint x="660" y="390" />
            </Array>
          </mxGeometry>
        </mxCell>
        <mxCell id="P7fMPqctJ7tEzOnnkOWb-356" value="" style="endArrow=none;dashed=1;html=1;dashPattern=1 3;strokeWidth=2;rounded=0;entryX=1;entryY=0.5;entryDx=0;entryDy=0;exitX=0;exitY=0.5;exitDx=0;exitDy=0;" edge="1" parent="1" source="P7fMPqctJ7tEzOnnkOWb-37" target="P7fMPqctJ7tEzOnnkOWb-20">
          <mxGeometry width="50" height="50" relative="1" as="geometry">
            <mxPoint x="210" y="580" as="sourcePoint" />
            <mxPoint x="260" y="530" as="targetPoint" />
            <Array as="points">
              <mxPoint x="660" y="420" />
            </Array>
          </mxGeometry>
        </mxCell>
        <mxCell id="P7fMPqctJ7tEzOnnkOWb-357" value="" style="endArrow=none;dashed=1;html=1;dashPattern=1 3;strokeWidth=2;rounded=0;entryX=1;entryY=0.5;entryDx=0;entryDy=0;exitX=0;exitY=0.5;exitDx=0;exitDy=0;" edge="1" parent="1" source="P7fMPqctJ7tEzOnnkOWb-37" target="P7fMPqctJ7tEzOnnkOWb-13">
          <mxGeometry width="50" height="50" relative="1" as="geometry">
            <mxPoint x="210" y="580" as="sourcePoint" />
            <mxPoint x="260" y="530" as="targetPoint" />
            <Array as="points">
              <mxPoint x="660" y="370" />
              <mxPoint x="580" y="380" />
            </Array>
          </mxGeometry>
        </mxCell>
      </root>
    </mxGraphModel>
  </diagram>
</mxfile>
